<svg width="60" height="60" viewBox="0 0 60 60" fill="none" xmlns="http://www.w3.org/2000/svg">
<g clip-path="url(#clip0_83_411)">
<path fill-rule="evenodd" clip-rule="evenodd" d="M47 60H13C11.2919 60.0034 9.59988 59.6695 8.02111 59.0174C6.44233 58.3653 5.00787 57.4079 3.80003 56.2C2.59218 54.9922 1.63474 53.5577 0.98264 51.9789C0.330538 50.4002 -0.00338745 48.7082 2.5906e-05 47V13C-0.00338745 11.2919 0.330538 9.59988 0.98264 8.02111C1.63474 6.44233 2.59218 5.00787 3.80003 3.80003C5.00787 2.59218 6.44233 1.63474 8.02111 0.98264C9.59988 0.330538 11.2919 -0.00338745 13 2.5906e-05H47C48.7082 -0.00338745 50.4002 0.330538 51.9789 0.98264C53.5577 1.63474 54.9922 2.59218 56.2 3.80003C57.4079 5.00787 58.3653 6.44233 59.0174 8.02111C59.6695 9.59988 60.0034 11.2919 60 13V47C60.0034 48.7082 59.6695 50.4002 59.0174 51.9789C58.3653 53.5577 57.4079 54.9922 56.2 56.2C54.9922 57.4079 53.5577 58.3653 51.9789 59.0174C50.4002 59.6695 48.7082 60.0034 47 60Z" fill="url(#paint0_linear_83_411)"/>
<path fill-rule="evenodd" clip-rule="evenodd" d="M44.0001 36.25V38C43.9995 39.1233 43.8991 40.2444 43.7001 41.35C43.603 41.9135 43.3936 42.4517 43.0844 42.9327C42.7752 43.4137 42.3724 43.8277 41.9001 44.15H41.8501C40.8532 44.9064 39.6502 45.3423 38.4001 45.4L37.4501 45.5C36.7046 45.5456 35.9587 45.4156 35.2727 45.1203C34.5866 44.8251 33.9794 44.3728 33.5001 43.8C33.0014 43.1958 32.6735 42.4691 32.5504 41.6954C32.4273 40.9217 32.5135 40.1291 32.8001 39.4V39.35C33.0619 38.6368 33.4954 37.9991 34.0623 37.4933C34.6291 36.9875 35.3118 36.6292 36.0501 36.45L39.8001 35.45C40.2718 35.3376 40.6916 35.0689 40.9912 34.6876C41.2907 34.3063 41.4525 33.8348 41.4501 33.35V30.8V20.05C41.4535 19.9258 41.4282 19.8026 41.3762 19.6898C41.3242 19.5771 41.2468 19.4779 41.1501 19.4C41.0508 19.3266 40.937 19.2753 40.8163 19.2494C40.6956 19.2235 40.5707 19.2237 40.4501 19.25L24.4501 22.5C24.1665 22.5453 23.909 22.6918 23.7251 22.9125C23.5412 23.1331 23.4436 23.4128 23.4501 23.7V40.8V42.05C23.4495 43.1733 23.3491 44.2944 23.1501 45.4C23.053 45.9635 22.8436 46.5017 22.5344 46.9827C22.2252 47.4637 21.8224 47.8777 21.3501 48.2H21.3001C20.3032 48.9564 19.1002 49.3923 17.8501 49.45L16.9501 49.5C16.2046 49.5456 15.4587 49.4156 14.7727 49.1203C14.0866 48.8251 13.4794 48.3728 13.0001 47.8C12.5014 47.1958 12.1735 46.4691 12.0504 45.6954C11.9273 44.9217 12.0135 44.1291 12.3001 43.4V43.35C12.5619 42.6368 12.9954 41.9991 13.5623 41.4933C14.1291 40.9875 14.8118 40.6292 15.5501 40.45L19.3001 39.45C19.7718 39.3376 20.1916 39.0689 20.4912 38.6876C20.7907 38.3063 20.9525 37.8348 20.9501 37.35V34.8V14.95C20.9557 14.5234 21.1078 14.1117 21.3809 13.7839C21.654 13.4562 22.0315 13.2323 22.4501 13.15L42.5001 9.49996C42.8686 9.45674 43.2406 9.5453 43.5501 9.74996C43.6906 9.86528 43.8038 10.0103 43.8816 10.1745C43.9594 10.3388 43.9999 10.5182 44.0001 10.7V36.25Z" fill="#BB58BB"/>
<path fill-rule="evenodd" clip-rule="evenodd" d="M44.0001 36.25V38C43.9995 39.1233 43.8991 40.2444 43.7001 41.35C43.603 41.9135 43.3936 42.4517 43.0844 42.9327C42.7752 43.4137 42.3724 43.8277 41.9001 44.15H41.8501C40.8532 44.9064 39.6502 45.3423 38.4001 45.4L37.4501 45.5C36.7046 45.5456 35.9587 45.4156 35.2727 45.1203C34.5866 44.8251 33.9794 44.3728 33.5001 43.8C33.0014 43.1958 32.6735 42.4691 32.5504 41.6954C32.4273 40.9217 32.5135 40.1291 32.8001 39.4V39.35C33.0619 38.6368 33.4954 37.9991 34.0623 37.4933C34.6291 36.9875 35.3118 36.6292 36.0501 36.45L39.8001 35.45C40.2718 35.3376 40.6916 35.0689 40.9912 34.6876C41.2907 34.3063 41.4525 33.8348 41.4501 33.35V30.8V20.05C41.4535 19.9258 41.4282 19.8026 41.3762 19.6898C41.3242 19.5771 41.2468 19.4779 41.1501 19.4C41.0508 19.3266 40.937 19.2753 40.8163 19.2494C40.6956 19.2235 40.5707 19.2237 40.4501 19.25L24.4501 22.5C24.1665 22.5453 23.909 22.6918 23.7251 22.9125C23.5412 23.1331 23.4436 23.4128 23.4501 23.7V40.8V42.05C23.4495 43.1733 23.3491 44.2944 23.1501 45.4C23.053 45.9635 22.8436 46.5017 22.5344 46.9827C22.2252 47.4637 21.8224 47.8777 21.3501 48.2H21.3001C20.3032 48.9564 19.1002 49.3923 17.8501 49.45L16.9501 49.5C16.2046 49.5456 15.4587 49.4156 14.7727 49.1203C14.0866 48.8251 13.4794 48.3728 13.0001 47.8C12.5014 47.1958 12.1735 46.4691 12.0504 45.6954C11.9273 44.9217 12.0135 44.1291 12.3001 43.4V43.35C12.5619 42.6368 12.9954 41.9991 13.5623 41.4933C14.1291 40.9875 14.8118 40.6292 15.5501 40.45L19.3001 39.45C19.7718 39.3376 20.1916 39.0689 20.4912 38.6876C20.7907 38.3063 20.9525 37.8348 20.9501 37.35V34.8V14.95C20.9557 14.5234 21.1078 14.1117 21.3809 13.7839C21.654 13.4562 22.0315 13.2323 22.4501 13.15L42.5001 9.49996C42.8686 9.45674 43.2406 9.5453 43.5501 9.74996C43.6906 9.86528 43.8038 10.0103 43.8816 10.1745C43.9594 10.3388 43.9999 10.5182 44.0001 10.7V36.25Z" fill="url(#paint1_radial_83_411)"/>
<path fill-rule="evenodd" clip-rule="evenodd" d="M44.0001 36.25V38C43.9995 39.1233 43.8991 40.2444 43.7001 41.35C43.603 41.9135 43.3936 42.4517 43.0844 42.9327C42.7752 43.4137 42.3724 43.8277 41.9001 44.15H41.8501C40.8532 44.9064 39.6502 45.3423 38.4001 45.4L37.4501 45.5C36.7046 45.5456 35.9587 45.4156 35.2727 45.1203C34.5866 44.8251 33.9794 44.3728 33.5001 43.8C33.0014 43.1958 32.6735 42.4691 32.5504 41.6954C32.4273 40.9217 32.5135 40.1291 32.8001 39.4V39.35C33.0619 38.6368 33.4954 37.9991 34.0623 37.4933C34.6291 36.9875 35.3118 36.6292 36.0501 36.45L39.8001 35.45C40.2718 35.3376 40.6916 35.0689 40.9912 34.6876C41.2907 34.3063 41.4525 33.8348 41.4501 33.35V30.8V20.05C41.4535 19.9258 41.4282 19.8026 41.3762 19.6898C41.3242 19.5771 41.2468 19.4779 41.1501 19.4C41.0508 19.3266 40.937 19.2753 40.8163 19.2494C40.6956 19.2235 40.5707 19.2237 40.4501 19.25L24.4501 22.5C24.1665 22.5453 23.909 22.6918 23.7251 22.9125C23.5412 23.1331 23.4436 23.4128 23.4501 23.7V40.8V42.05C23.4495 43.1733 23.3491 44.2944 23.1501 45.4C23.053 45.9635 22.8436 46.5017 22.5344 46.9827C22.2252 47.4637 21.8224 47.8777 21.3501 48.2H21.3001C20.3032 48.9564 19.1002 49.3923 17.8501 49.45L16.9501 49.5C16.2046 49.5456 15.4587 49.4156 14.7727 49.1203C14.0866 48.8251 13.4794 48.3728 13.0001 47.8C12.5014 47.1958 12.1735 46.4691 12.0504 45.6954C11.9273 44.9217 12.0135 44.1291 12.3001 43.4V43.35C12.5619 42.6368 12.9954 41.9991 13.5623 41.4933C14.1291 40.9875 14.8118 40.6292 15.5501 40.45L19.3001 39.45C19.7718 39.3376 20.1916 39.0689 20.4912 38.6876C20.7907 38.3063 20.9525 37.8348 20.9501 37.35V34.8V14.95C20.9557 14.5234 21.1078 14.1117 21.3809 13.7839C21.654 13.4562 22.0315 13.2323 22.4501 13.15L42.5001 9.49996C42.8686 9.45674 43.2406 9.5453 43.5501 9.74996C43.6906 9.86528 43.8038 10.0103 43.8816 10.1745C43.9594 10.3388 43.9999 10.5182 44.0001 10.7V36.25Z" fill="url(#paint2_radial_83_411)"/>
<path fill-rule="evenodd" clip-rule="evenodd" d="M44.0001 36.25V38C43.9995 39.1233 43.8991 40.2444 43.7001 41.35C43.603 41.9135 43.3936 42.4517 43.0844 42.9327C42.7752 43.4137 42.3724 43.8277 41.9001 44.15H41.8501C40.8532 44.9064 39.6502 45.3423 38.4001 45.4L37.4501 45.5C36.7046 45.5456 35.9587 45.4156 35.2727 45.1203C34.5866 44.8251 33.9794 44.3728 33.5001 43.8C33.0014 43.1958 32.6735 42.4691 32.5504 41.6954C32.4273 40.9217 32.5135 40.1291 32.8001 39.4V39.35C33.0619 38.6368 33.4954 37.9991 34.0623 37.4933C34.6291 36.9875 35.3118 36.6292 36.0501 36.45L39.8001 35.45C40.2718 35.3376 40.6916 35.0689 40.9912 34.6876C41.2907 34.3063 41.4525 33.8348 41.4501 33.35V30.8V20.05C41.4535 19.9258 41.4282 19.8026 41.3762 19.6898C41.3242 19.5771 41.2468 19.4779 41.1501 19.4C41.0508 19.3266 40.937 19.2753 40.8163 19.2494C40.6956 19.2235 40.5707 19.2237 40.4501 19.25L24.4501 22.5C24.1665 22.5453 23.909 22.6918 23.7251 22.9125C23.5412 23.1331 23.4436 23.4128 23.4501 23.7V40.8V42.05C23.4495 43.1733 23.3491 44.2944 23.1501 45.4C23.053 45.9635 22.8436 46.5017 22.5344 46.9827C22.2252 47.4637 21.8224 47.8777 21.3501 48.2H21.3001C20.3032 48.9564 19.1002 49.3923 17.8501 49.45L16.9501 49.5C16.2046 49.5456 15.4587 49.4156 14.7727 49.1203C14.0866 48.8251 13.4794 48.3728 13.0001 47.8C12.5014 47.1958 12.1735 46.4691 12.0504 45.6954C11.9273 44.9217 12.0135 44.1291 12.3001 43.4V43.35C12.5619 42.6368 12.9954 41.9991 13.5623 41.4933C14.1291 40.9875 14.8118 40.6292 15.5501 40.45L19.3001 39.45C19.7718 39.3376 20.1916 39.0689 20.4912 38.6876C20.7907 38.3063 20.9525 37.8348 20.9501 37.35V34.8V14.95C20.9557 14.5234 21.1078 14.1117 21.3809 13.7839C21.654 13.4562 22.0315 13.2323 22.4501 13.15L42.5001 9.49996C42.8686 9.45674 43.2406 9.5453 43.5501 9.74996C43.6906 9.86528 43.8038 10.0103 43.8816 10.1745C43.9594 10.3388 43.9999 10.5182 44.0001 10.7V36.25Z" fill="url(#paint3_linear_83_411)"/>
<path fill-rule="evenodd" clip-rule="evenodd" d="M44.0001 36.25V38C43.9995 39.1233 43.8991 40.2444 43.7001 41.35C43.603 41.9135 43.3936 42.4517 43.0844 42.9327C42.7752 43.4137 42.3724 43.8277 41.9001 44.15H41.8501C40.8532 44.9064 39.6502 45.3423 38.4001 45.4L37.4501 45.5C36.7046 45.5456 35.9587 45.4156 35.2727 45.1203C34.5866 44.8251 33.9794 44.3728 33.5001 43.8C33.0014 43.1958 32.6735 42.4691 32.5504 41.6954C32.4273 40.9217 32.5135 40.1291 32.8001 39.4V39.35C33.0619 38.6368 33.4954 37.9991 34.0623 37.4933C34.6291 36.9875 35.3118 36.6292 36.0501 36.45L39.8001 35.45C40.2718 35.3376 40.6916 35.0689 40.9912 34.6876C41.2907 34.3063 41.4525 33.8348 41.4501 33.35V30.8V20.05C41.4535 19.9258 41.4282 19.8026 41.3762 19.6898C41.3242 19.5771 41.2468 19.4779 41.1501 19.4C41.0508 19.3266 40.937 19.2753 40.8163 19.2494C40.6956 19.2235 40.5707 19.2237 40.4501 19.25L24.4501 22.5C24.1665 22.5453 23.909 22.6918 23.7251 22.9125C23.5412 23.1331 23.4436 23.4128 23.4501 23.7V40.8V42.05C23.4495 43.1733 23.3491 44.2944 23.1501 45.4C23.053 45.9635 22.8436 46.5017 22.5344 46.9827C22.2252 47.4637 21.8224 47.8777 21.3501 48.2H21.3001C20.3032 48.9564 19.1002 49.3923 17.8501 49.45L16.9501 49.5C16.2046 49.5456 15.4587 49.4156 14.7727 49.1203C14.0866 48.8251 13.4794 48.3728 13.0001 47.8C12.5014 47.1958 12.1735 46.4691 12.0504 45.6954C11.9273 44.9217 12.0135 44.1291 12.3001 43.4V43.35C12.5619 42.6368 12.9954 41.9991 13.5623 41.4933C14.1291 40.9875 14.8118 40.6292 15.5501 40.45L19.3001 39.45C19.7718 39.3376 20.1916 39.0689 20.4912 38.6876C20.7907 38.3063 20.9525 37.8348 20.9501 37.35V34.8V14.95C20.9557 14.5234 21.1078 14.1117 21.3809 13.7839C21.654 13.4562 22.0315 13.2323 22.4501 13.15L42.5001 9.49996C42.8686 9.45674 43.2406 9.5453 43.5501 9.74996C43.6906 9.86528 43.8038 10.0103 43.8816 10.1745C43.9594 10.3388 43.9999 10.5182 44.0001 10.7V36.25Z" fill="white"/>
</g>
<defs>
<linearGradient id="paint0_linear_83_411" x1="30" y1="60" x2="30" y2="2.86102e-05" gradientUnits="userSpaceOnUse">
<stop stop-color="#FD355A"/>
<stop offset="1" stop-color="#FD5163"/>
</linearGradient>
<radialGradient id="paint1_radial_83_411" cx="0" cy="0" r="1" gradientUnits="userSpaceOnUse" gradientTransform="translate(18.8101 45.1942) rotate(90) scale(25.3065)">
<stop stop-color="#7470F9"/>
<stop offset="1" stop-color="#7A70FE" stop-opacity="0"/>
</radialGradient>
<radialGradient id="paint2_radial_83_411" cx="0" cy="0" r="1" gradientUnits="userSpaceOnUse" gradientTransform="translate(38.7757 39.418) rotate(-105.538) scale(20.427)">
<stop stop-color="#4CA3F8"/>
<stop offset="0.362" stop-color="#4CA4F7"/>
<stop offset="1" stop-color="#4AA2F9" stop-opacity="0"/>
</radialGradient>
<linearGradient id="paint3_linear_83_411" x1="24.151" y1="17.1919" x2="32.9636" y2="33.1904" gradientUnits="userSpaceOnUse">
<stop stop-color="#FF6380"/>
<stop offset="1" stop-color="#F65E79" stop-opacity="0"/>
</linearGradient>
<clipPath id="clip0_83_411">
<rect width="60" height="60" fill="white"/>
</clipPath>
</defs>
</svg>
