<svg width="60" height="60" viewBox="0 0 60 60" fill="none" xmlns="http://www.w3.org/2000/svg">
<path d="M46.5327 0H13.4673C6.0295 0 0 6.0295 0 13.4673V46.5327C0 53.9705 6.0295 60 13.4673 60H46.5327C53.9705 60 60 53.9705 60 46.5327V13.4673C60 6.0295 53.9705 0 46.5327 0Z" fill="url(#paint0_linear_83_1302)"/>
<path d="M20.7828 10.3914H39.4874C39.903 10.5992 40.5265 10.5992 40.9422 10.807C42.7661 11.1026 44.4715 11.9011 45.8666 13.1126C47.2618 14.3242 48.2913 15.9008 48.8396 17.6653C49.1466 18.6822 49.3554 19.7261 49.4631 20.7828V39.0716C49.166 41.3895 48.3102 43.6005 46.9692 45.5143C45.8188 46.8472 44.3765 47.8968 42.7545 48.5817C41.1325 49.2665 39.3745 49.5681 37.6169 49.4631H22.0298C19.2481 49.5981 16.5131 48.711 14.3402 46.9691C13.0188 45.8274 11.976 44.3987 11.2916 42.7922C10.6072 41.1856 10.2993 39.4438 10.3914 37.7V23.152C10.3571 22.1085 10.4267 21.0643 10.5993 20.0346C10.8091 17.9039 11.6852 15.8936 13.1029 14.2893C14.5207 12.685 16.408 11.5683 18.4967 11.098L20.7828 10.3914ZM14.3402 30.135V38.2403C14.2516 39.2725 14.3896 40.3115 14.7447 41.2847C15.0999 42.2579 15.6634 43.1417 16.3959 43.8742C17.1285 44.6068 18.0122 45.1703 18.9854 45.5254C19.9586 45.8805 20.9977 46.0186 22.0298 45.93C27.4333 46.1378 32.8369 46.1378 38.2404 45.93C43.0205 45.93 45.7222 43.0204 45.9301 38.2403C46.1379 32.8368 46.1379 27.4333 45.9301 22.0297C45.9839 21.0057 45.8219 19.9818 45.4545 19.0245C45.0871 18.0672 44.5226 17.1978 43.7975 16.4727C43.0724 15.7476 42.203 15.183 41.2456 14.8157C40.2883 14.4483 39.2644 14.2862 38.2404 14.3401C32.8369 14.1323 27.4333 14.1323 22.0298 14.3401C20.9977 14.2515 19.9586 14.3896 18.9854 14.7447C18.0122 15.0998 17.1285 15.6633 16.3959 16.3958C15.6634 17.1284 15.0999 18.0122 14.7447 18.9854C14.3896 19.9585 14.2516 20.9976 14.3402 22.0297V30.135Z" fill="white"/>
<path d="M20.0347 30.2182C20.0402 27.5191 21.1148 24.932 23.0234 23.0234C24.932 21.1148 27.5191 20.0402 30.2182 20.0347C32.9024 20.0878 35.4619 21.1778 37.3603 23.0762C39.2587 24.9746 40.3487 27.534 40.4018 30.2182C40.3963 32.9174 39.3217 35.5045 37.4131 37.4131C35.5045 39.3217 32.9174 40.3963 30.2182 40.4018C27.534 40.3487 24.9746 39.2587 23.0762 37.3603C21.1778 35.4619 20.0878 32.9024 20.0347 30.2182ZM30.2182 23.7756C28.9559 23.755 27.7163 24.1119 26.6581 24.8005C25.5999 25.489 24.7714 26.4778 24.2788 27.6402C23.7862 28.8026 23.652 30.0856 23.8932 31.3248C24.1345 32.564 24.7403 33.703 25.633 34.5957C26.5257 35.4884 27.6646 36.0942 28.9038 36.3354C30.143 36.5767 31.426 36.4424 32.5884 35.9498C33.7508 35.4572 34.7397 34.6288 35.4282 33.5706C36.1168 32.5124 36.4736 31.2727 36.4531 30.0104C36.4531 28.3568 35.7962 26.771 34.6269 25.6017C33.4577 24.4325 31.8718 23.7756 30.2182 23.7756Z" fill="white"/>
<path d="M38.1157 19.619C38.1041 19.2883 38.1607 18.9588 38.2819 18.651C38.4031 18.3432 38.5864 18.0636 38.8204 17.8296C39.0543 17.5957 39.3339 17.4124 39.6417 17.2912C39.9496 17.17 40.279 17.1134 40.6097 17.125C41.2567 17.1688 41.8659 17.4456 42.3245 17.9042C42.783 18.3627 43.0599 18.9719 43.1036 19.619C43.1036 20.2804 42.8409 20.9147 42.3732 21.3824C41.9055 21.8501 41.2711 22.1129 40.6097 22.1129C39.9482 22.1129 39.3139 21.8501 38.8462 21.3824C38.3785 20.9147 38.1157 20.2804 38.1157 19.619Z" fill="white"/>
<defs>
<linearGradient id="paint0_linear_83_1302" x1="-3.82404" y1="63.3253" x2="66.8375" y2="-6.29719" gradientUnits="userSpaceOnUse">
<stop stop-color="#FED576"/>
<stop offset="0.26" stop-color="#F47133"/>
<stop offset="0.61" stop-color="#BC3081"/>
<stop offset="1" stop-color="#4C63D2"/>
</linearGradient>
</defs>
</svg>
