<svg width="60" height="60" viewBox="0 0 60 60" fill="none" xmlns="http://www.w3.org/2000/svg">
<g clip-path="url(#clip0_83_296)">
<path d="M47 0H13C5.8203 0 0 5.8203 0 13V47C0 54.1797 5.8203 60 13 60H47C54.1797 60 60 54.1797 60 47V13C60 5.8203 54.1797 0 47 0Z" fill="url(#paint0_linear_83_296)"/>
<path d="M30.2549 10.7549C18.1049 10.7549 8.25488 18.8149 8.25488 28.7549C8.25488 35.0749 12.2549 40.6299 18.2549 43.8399C18.4743 43.9482 18.6463 44.1333 18.7385 44.3599C18.8306 44.5866 18.8365 44.8392 18.7549 45.0699C18.1605 46.5057 17.2045 47.7632 15.9799 48.7199C15.8937 48.7899 15.8333 48.8865 15.8081 48.9947C15.7829 49.1028 15.7945 49.2162 15.8409 49.317C15.8873 49.4179 15.9659 49.5004 16.0644 49.5516C16.1629 49.6028 16.2757 49.6198 16.3849 49.5999C19.0005 49.1506 21.4836 48.1259 23.6549 46.5999C23.8723 46.4377 24.1209 46.3225 24.3851 46.2614C24.6494 46.2002 24.9234 46.1946 25.1899 46.2449C26.8618 46.5728 28.5612 46.7402 30.2649 46.7449C42.4149 46.7449 52.2649 38.6849 52.2649 28.7449C52.2649 18.8049 42.4049 10.7549 30.2549 10.7549Z" fill="#FEFEFE"/>
</g>
<defs>
<linearGradient id="paint0_linear_83_296" x1="30" y1="0" x2="30" y2="60" gradientUnits="userSpaceOnUse">
<stop stop-color="#5CF777"/>
<stop offset="1" stop-color="#0DBC29"/>
</linearGradient>
<clipPath id="clip0_83_296">
<rect width="60" height="60" fill="white"/>
</clipPath>
</defs>
</svg>
