<svg width="60" height="60" viewBox="0 0 60 60" fill="none" xmlns="http://www.w3.org/2000/svg">
<g clip-path="url(#clip0_83_1288)">
<path fill-rule="evenodd" clip-rule="evenodd" d="M2.5896e-05 47V13C-0.0033868 11.2919 0.330539 9.59988 0.982641 8.02111C1.63474 6.44233 2.59219 5.00787 3.80003 3.80003C5.00787 2.59219 6.44233 1.63474 8.02111 0.982641C9.59988 0.330539 11.2919 -0.0033868 13 2.5896e-05H47C48.7082 -0.0033868 50.4002 0.330539 51.9789 0.982641C53.5577 1.63474 54.9922 2.59219 56.2 3.80003C57.4079 5.00787 58.3653 6.44233 59.0174 8.02111C59.6695 9.59988 60.0034 11.2919 60 13V47C60.0034 48.7082 59.6695 50.4002 59.0174 51.9789C58.3653 53.5577 57.4079 54.9922 56.2 56.2C54.9922 57.4079 53.5577 58.3653 51.9789 59.0174C50.4002 59.6695 48.7082 60.0034 47 60H13C9.5527 59.9984 6.24702 58.6283 3.80939 56.1907C1.37177 53.753 0.00161587 50.4474 2.5896e-05 47V47Z" fill="url(#paint0_linear_83_1288)"/>
<path fill-rule="evenodd" clip-rule="evenodd" d="M49.5001 43.1C49.0429 43.3603 48.5262 43.4981 48.0001 43.5H12.0001C11.4732 43.5047 10.9548 43.3665 10.5001 43.1L22.5001 31.1L25.4501 34.05C26.052 34.6294 26.7663 35.0792 27.5489 35.3716C28.3315 35.664 29.1658 35.7928 30.0001 35.75C30.834 35.7882 31.667 35.6573 32.4489 35.3652C33.2309 35.073 33.9456 34.6256 34.5501 34.05L37.5001 31.1L49.5001 43.1ZM50.5501 42L38.5501 30L50.5501 18C50.8104 18.4572 50.9482 18.9739 50.9501 19.5V40.5C50.9967 41.0314 50.8552 41.5623 50.5501 42ZM9.40012 42C9.13983 41.5428 9.00204 41.0261 9.00012 40.5V19.5C8.99542 18.973 9.13366 18.4547 9.40012 18L21.4001 30L9.40012 42ZM49.5001 16.9L33.4501 32.95C32.9932 33.3892 32.4517 33.7309 31.8586 33.9543C31.2656 34.1778 30.6333 34.2784 30.0001 34.25C29.367 34.2784 28.7347 34.1778 28.1416 33.9543C27.5485 33.7309 27.0071 33.3892 26.5501 32.95L10.5001 16.9C10.9573 16.6397 11.474 16.5019 12.0001 16.5H48.0001C48.5262 16.5019 49.0429 16.6397 49.5001 16.9Z" fill="white"/>
</g>
<defs>
<linearGradient id="paint0_linear_83_1288" x1="30" y1="2.5896e-05" x2="30" y2="60.0005" gradientUnits="userSpaceOnUse">
<stop stop-color="#1D6FF2"/>
<stop offset="1" stop-color="#1AC8FC"/>
</linearGradient>
<clipPath id="clip0_83_1288">
<rect width="60" height="60" fill="white"/>
</clipPath>
</defs>
</svg>
