<svg width="60" height="60" viewBox="0 0 60 60" fill="none" xmlns="http://www.w3.org/2000/svg">
<path d="M39.0667 0C45.0667 0 48.0667 0 51.3333 1C54.8667 2.26667 57.6667 5.06667 58.9333 8.6C60 11.9333 60 14.9333 60 20.9333V39.0667C60 45.0667 60 48.0667 59 51.3333C57.7333 54.8667 54.9333 57.6667 51.4 58.9333C48.1333 60 45.1333 60 39.0667 60H20.9333C14.9333 60 11.9333 60 8.66667 59C5.13333 57.6667 2.33333 54.9333 1.06667 51.3333C-7.94729e-08 48.1333 0 45.1333 0 39.0667V20.9333C0 14.9333 0 11.9333 1 8.66667C2.33333 5.13333 5.13333 2.33333 8.66667 1.06667C11.9333 -7.94729e-08 14.9333 0 20.9333 0H39.0667Z" fill="url(#paint0_linear_83_276)"/>
<path d="M13.7998 26.2001C11.5998 22.2001 10.7332 18.9335 10.7332 16.7335C10.7332 14.5335 11.2665 13.9335 11.7998 13.4001C12.3332 12.8668 14.7998 11.4001 15.2665 11.0668C15.6665 10.8001 17.2665 10.2001 18.2665 11.6668C19.2665 13.1335 21.1332 16.0001 22.4665 17.9335C24.5332 20.6668 22.8665 21.8668 22.3332 22.6001C21.3332 23.9335 20.7998 24.2668 20.7998 25.8668C20.7998 27.4668 25.3332 32.1335 26.3998 33.2668C27.4665 34.4001 31.9998 38.3335 33.3998 38.6001C34.7998 38.8001 36.7332 37.3335 37.1332 36.9335C39.1998 35.3335 40.3332 36.5335 41.2665 37.0668C42.1998 37.6001 46.4665 40.2668 47.7998 41.1335C49.0665 42.0001 48.9332 43.4001 48.9332 43.4001C48.9332 43.4001 48.0665 46.0001 46.0665 47.9335C45.5998 48.4001 44.7332 49.0001 42.6665 49.0001C40.5998 49.0001 38.3332 48.6001 32.9998 45.6668C28.6665 43.2668 24.5332 39.5335 22.3332 37.3335C20.1332 35.2001 16.3332 30.8001 13.7998 26.2001Z" fill="white"/>
<defs>
<linearGradient id="paint0_linear_83_276" x1="30.0267" y1="0.0266667" x2="30.0267" y2="59.9867" gradientUnits="userSpaceOnUse">
<stop stop-color="#67FF81"/>
<stop offset="1" stop-color="#01B41F"/>
</linearGradient>
</defs>
</svg>
