<svg width="31" height="31" viewBox="0 0 31 31" fill="none" xmlns="http://www.w3.org/2000/svg">
<path d="M26.9931 26.8118C25.1926 28.6149 21.0864 28.1246 16.5063 25.7205C18.2594 24.4868 19.9966 23.0316 21.6076 21.4183C23.2027 19.8208 24.6557 18.081 25.9033 16.3253C28.3039 20.8964 28.7935 25.0087 26.9931 26.8118Z" fill="#F15A29"/>
<path d="M27.3316 14.4363L27.345 14.4229L27.2509 14.275C29.7099 9.50356 29.804 5.32348 27.4794 2.98479C25.1279 0.659538 20.949 0.753624 16.1654 3.22672C10.1859 -0.509808 4.7439 -1.04744 1.85494 1.85577C-1.04746 4.74553 -0.509979 10.189 3.22552 16.1702C0.766539 20.9551 0.659043 25.1217 2.99709 27.4604C4.1258 28.5894 5.6845 29.1539 7.52537 29.1539C9.50062 29.1539 11.8118 28.5088 14.2708 27.2454L14.4186 27.3394L14.432 27.326C17.7913 29.3959 20.9758 30.4577 23.6364 30.4577C25.6519 30.4577 27.3584 29.8529 28.6081 28.6029C31.4702 25.74 30.973 20.3637 27.3316 14.4363ZM15.8026 6.73476C17.2941 7.78314 18.7319 8.99281 20.1024 10.3638C21.4327 11.6944 22.6286 13.1057 23.6498 14.5438C23.6364 14.5573 23.6229 14.5842 23.6095 14.5976C23.4886 14.7858 23.3676 14.9739 23.2467 15.1621C23.2333 15.1756 23.2333 15.189 23.2198 15.2024C23.0855 15.3906 22.9645 15.5788 22.8302 15.7804C22.8033 15.8207 22.7764 15.8476 22.7495 15.8879C22.6152 16.0761 22.4808 16.2643 22.3464 16.439C22.3196 16.4793 22.2927 16.5062 22.2658 16.5465C22.118 16.7347 21.9702 16.9229 21.8224 17.111C21.8089 17.1245 21.7955 17.1513 21.7821 17.1648C21.6343 17.353 21.4865 17.5277 21.3252 17.7159C21.3118 17.7427 21.2849 17.7562 21.2715 17.7831C21.1102 17.9712 20.9624 18.146 20.7877 18.3341C20.7609 18.3745 20.7205 18.4013 20.6937 18.4417C20.5324 18.6164 20.3712 18.8046 20.1965 18.9793C20.1696 19.0062 20.1428 19.0331 20.1159 19.0599C19.9412 19.2481 19.7665 19.4228 19.5784 19.611C19.4037 19.7857 19.2156 19.9739 19.0275 20.1486C19.0006 20.1755 18.9737 20.2024 18.9334 20.2293C18.7587 20.3906 18.5841 20.5519 18.3959 20.7131C18.3556 20.74 18.3288 20.7804 18.2884 20.8072C18.1138 20.9685 17.9256 21.1298 17.751 21.2777C17.7241 21.3045 17.6972 21.318 17.6703 21.3449C17.4957 21.4927 17.3075 21.6406 17.1329 21.7884C17.1194 21.8018 17.0925 21.8153 17.0791 21.8287C16.891 21.9766 16.7029 22.1244 16.5148 22.2723C16.4744 22.2992 16.4476 22.326 16.4073 22.3529C16.2191 22.4873 16.0445 22.6217 15.8563 22.7561C15.816 22.783 15.7892 22.8099 15.7488 22.8368C15.5607 22.9712 15.3592 23.1056 15.171 23.24C15.1576 23.2534 15.1442 23.2535 15.1307 23.2669C14.9426 23.3879 14.7545 23.5223 14.5529 23.6298C14.5395 23.6432 14.5126 23.6567 14.4992 23.6567C13.048 22.6352 11.6505 21.4389 10.3203 20.1083C8.9497 18.7374 7.74036 17.2992 6.69227 15.8073C7.78067 14.0734 9.16469 12.353 10.7368 10.7804C12.3493 9.19442 14.0692 7.82346 15.8026 6.73476ZM22.9242 4.16758C23.9992 4.16758 24.8726 4.44983 25.4369 5.01434C26.6194 6.19713 26.5522 8.65679 25.3429 11.5734C24.4292 10.3906 23.4214 9.24818 22.3196 8.14604C21.2177 7.0439 20.0756 6.03584 18.8931 5.12187C20.3846 4.49015 21.7686 4.16758 22.9242 4.16758ZM4.07205 4.07349C4.69015 3.45522 5.64418 3.14608 6.81321 3.14608C8.54659 3.14608 10.7637 3.81812 13.1286 5.06811C11.6102 6.12993 10.1322 7.36648 8.76158 8.73743C7.37756 10.1218 6.12792 11.6003 5.06639 13.1191C2.97021 9.18098 2.52679 5.61918 4.07205 4.07349ZM5.02608 25.4443C3.84362 24.2615 3.91081 21.8018 5.12014 18.8852C6.03386 20.068 7.04164 21.2105 8.14347 22.3126C9.24531 23.4147 10.3875 24.4228 11.5699 25.3368C8.65408 26.5599 6.20854 26.6271 5.02608 25.4443ZM26.391 26.3986C24.8592 27.9308 21.3655 27.5142 17.4688 25.4712C17.5091 25.4443 17.536 25.4174 17.5763 25.3905C17.6972 25.3099 17.8181 25.2158 17.9391 25.1352C17.9928 25.0948 18.0466 25.0545 18.1003 25.0142C18.2481 24.9067 18.3825 24.7991 18.5303 24.6916C18.5572 24.6782 18.5706 24.6513 18.5975 24.6378C18.7587 24.5169 18.92 24.3825 19.0812 24.2481C19.135 24.2077 19.1753 24.1674 19.229 24.1271C19.35 24.033 19.4709 23.9255 19.5918 23.8314C19.6456 23.7911 19.6993 23.7508 19.7396 23.7104C19.8874 23.576 20.0487 23.4551 20.1965 23.3207C20.2099 23.3072 20.2234 23.3072 20.2234 23.2938C20.3846 23.1459 20.5459 23.0115 20.7071 22.8637C20.7474 22.8233 20.8012 22.783 20.8415 22.7427C20.9624 22.6352 21.0833 22.5276 21.1908 22.4067C21.2312 22.3664 21.2849 22.326 21.3252 22.2723C21.4865 22.1244 21.6343 21.9766 21.7955 21.8153C21.9433 21.6674 22.1046 21.5062 22.2524 21.3583C22.2927 21.318 22.3464 21.2642 22.3867 21.2239C22.4942 21.1029 22.6017 20.9954 22.7092 20.8744C22.7495 20.8341 22.7898 20.7804 22.8436 20.74C22.9914 20.5787 23.1258 20.4175 23.2736 20.2562C23.287 20.2427 23.287 20.2427 23.3005 20.2293C23.4348 20.0814 23.5692 19.9201 23.6901 19.7723C23.7304 19.7185 23.7708 19.6782 23.8111 19.6244C23.9186 19.5035 24.0126 19.3825 24.1201 19.2481C24.1604 19.2078 24.1873 19.154 24.2276 19.1137C24.362 18.9524 24.4964 18.7777 24.6173 18.6164C24.6307 18.6029 24.6307 18.5895 24.6442 18.5761C24.7651 18.4282 24.886 18.2669 24.9935 18.1056C25.0338 18.0519 25.0607 18.0116 25.101 17.9578C25.1951 17.8234 25.2891 17.7024 25.3832 17.568C25.4101 17.5411 25.4235 17.5142 25.4504 17.4874C27.5062 21.3717 27.9228 24.8663 26.391 26.3986Z" fill="black"/>
<path d="M12.7386 15.2288C12.7386 13.8507 13.8491 12.7401 15.2271 12.7401C16.6051 12.7401 17.7156 13.8507 17.7156 15.2288C17.7156 16.607 16.6051 17.7176 15.2271 17.7176C13.8491 17.7176 12.7386 16.607 12.7386 15.2288Z" fill="#F15A29"/>
</svg>
