<svg width="56" height="16" viewBox="0 0 56 16" fill="none" xmlns="http://www.w3.org/2000/svg">
<path d="M7.63898 15.5148C6.5792 15.5148 5.59991 15.3001 4.74135 14.8841C3.86938 14.4682 3.11814 13.9046 2.50105 13.2202C1.88396 12.5359 1.3876 11.7442 1.05223 10.8452C0.716855 9.95954 0.542458 9.03366 0.542458 8.10779C0.542458 7.14165 0.730267 6.20236 1.07906 5.31673C1.44126 4.43111 1.95103 3.626 2.58154 2.94165C3.21204 2.25731 3.97669 1.70715 4.84867 1.30459C5.72064 0.902038 6.67311 0.70076 7.69265 0.70076C8.73901 0.70076 9.70489 0.915456 10.5769 1.34485C11.4354 1.77424 12.1867 2.35124 12.8038 3.049C13.4208 3.74677 13.9038 4.55188 14.2526 5.4375C14.5879 6.32312 14.7623 7.23558 14.7623 8.16146C14.7623 9.10076 14.5879 10.0132 14.2526 10.872C13.9172 11.7308 13.4477 12.4956 12.8574 13.1666L11.3147 14.4816C10.7915 14.8036 10.2147 15.0586 9.59757 15.2464C8.9939 15.4209 8.33656 15.5148 7.63898 15.5148ZM7.6524 2.83431C6.91457 2.83431 6.24383 2.99533 5.66698 3.29054C5.09014 3.59916 4.59378 4.00172 4.21816 4.51162C3.82913 5.00811 3.54741 5.5851 3.34619 6.20236C3.14496 6.81961 3.05106 7.4637 3.05106 8.10779C3.05106 8.77871 3.15838 9.43622 3.3596 10.0669C3.56083 10.6976 3.86938 11.2611 4.25841 11.7442C4.64744 12.2273 5.13038 12.6298 5.70723 12.925C6.28407 13.2202 6.94141 13.3678 7.66581 13.3678C8.08168 13.3678 8.44388 13.3142 8.79267 13.2202C9.14146 13.1263 9.46342 12.9921 9.75855 12.8311L9.78538 12.8177L11.3281 11.3551L11.3415 11.3282C11.6366 10.8586 11.8647 10.3487 12.0257 9.7851C12.1867 9.23494 12.2672 8.67136 12.2672 8.09437C12.2672 7.42344 12.1598 6.76593 11.9452 6.13526C11.7306 5.50459 11.422 4.94101 11.033 4.45795C10.6439 3.97488 10.161 3.57232 9.58416 3.27712C9.02073 2.99533 8.36339 2.83431 7.6524 2.83431Z" fill="black"/>
<path d="M22.0296 13.6332C22.5922 13.6332 23.0745 13.5126 23.4629 13.2846C23.8514 13.0566 24.1595 12.7482 24.4006 12.3728C24.6417 11.9973 24.8025 11.5816 24.9097 11.0989C25.0034 10.6162 25.057 10.12 25.057 9.61046V3.30811H27.4414V9.61046C27.4414 10.4552 27.3342 11.2598 27.1333 11.9973C26.9324 12.7348 26.6109 13.3919 26.1822 13.9417C25.7536 14.5048 25.191 14.9339 24.5078 15.2692C23.8246 15.591 23.0075 15.7519 22.0564 15.7519C21.0651 15.7519 20.2346 15.5776 19.538 15.2424C18.8415 14.8937 18.2923 14.4512 17.8636 13.888C17.4349 13.3248 17.1268 12.6678 16.9393 11.9303C16.7518 11.1928 16.658 10.415 16.658 9.61046V3.30811H19.0558V9.61046C19.0558 10.1334 19.1094 10.6296 19.2032 11.1123C19.2969 11.595 19.4711 12.0241 19.7122 12.3862C19.9533 12.7616 20.2614 13.0566 20.6365 13.2846C20.9982 13.526 21.467 13.6332 22.0296 13.6332Z" fill="black"/>
<path d="M39.8839 12.4992C39.8839 13.0225 39.7766 13.4787 39.5754 13.8813C39.3607 14.2704 39.079 14.6058 38.7168 14.8742C38.3546 15.1425 37.9253 15.3438 37.4424 15.478C36.9594 15.6121 36.4497 15.6927 35.8996 15.6927H29.93V3.30811H36.5302C36.9594 3.30811 37.3485 3.40203 37.6973 3.58988C38.0461 3.77773 38.3412 4.01924 38.5826 4.31443C38.8241 4.60962 39.0119 4.94507 39.1461 5.32076C39.2802 5.69646 39.3473 6.07215 39.3473 6.46127C39.3473 7.06507 39.1997 7.62861 38.8912 8.16532C38.5826 8.68861 38.1534 9.09114 37.5631 9.34608C38.2741 9.56076 38.8375 9.93646 39.24 10.4732C39.6693 11.0099 39.8839 11.6808 39.8839 12.4992ZM32.3178 5.37443V8.48734H35.524C35.9265 8.48734 36.2753 8.35317 36.557 8.07139C36.8387 7.78962 36.9863 7.41393 36.9863 6.91747C36.9863 6.44785 36.8521 6.05874 36.5972 5.79038C36.3423 5.50861 36.0204 5.37443 35.6313 5.37443H32.3178V5.37443ZM37.4558 12.043C37.4558 11.8284 37.4155 11.6137 37.3485 11.4124C37.268 11.2111 37.1741 11.0367 37.0399 10.8757C36.9058 10.7281 36.7582 10.6073 36.5838 10.5134C36.4094 10.4195 36.2216 10.3792 36.007 10.3792H32.3178V13.6397H35.8862C36.1009 13.6397 36.3155 13.5995 36.5033 13.519C36.6911 13.4385 36.8655 13.3311 36.9997 13.1835C37.1338 13.0359 37.2546 12.8615 37.3351 12.6737C37.4155 12.4724 37.4558 12.2577 37.4558 12.043Z" fill="black"/>
<path d="M44.2094 3.30811H41.7802V15.6927H44.2094V3.30811Z" fill="black"/>
<path d="M55.9999 5.41697H52.0399V15.6927H49.6505V5.41697H45.6905V3.30811H55.9999V5.41697Z" fill="black"/>
<path d="M7.35583 10.0633H10.1019L15.0583 15.6334H12.3122L7.35583 10.0633Z" fill="#F15A29"/>
</svg>
