<svg width="251" height="534" viewBox="0 0 251 534" fill="none" xmlns="http://www.w3.org/2000/svg">
<path opacity="0.1" d="M479.251 253.105L479.487 252.869L477.837 250.277C520.954 166.621 522.603 93.334 481.843 52.3309C440.611 11.5634 367.335 13.2129 283.457 56.5726C178.61 -8.93821 83.1875 -18.3642 32.5309 32.5362C-18.3612 83.201 -8.93675 178.639 56.5633 283.504C13.4464 367.395 11.5615 440.447 52.5579 481.45C72.3493 501.245 99.6803 511.142 131.959 511.142C166.594 511.142 207.119 499.831 250.236 477.68L252.828 479.329L253.064 479.093C311.967 515.384 367.807 534 414.458 534C449.799 534 479.722 523.396 501.634 501.48C551.819 451.287 543.102 357.027 479.251 253.105ZM277.096 118.077C303.249 136.458 328.459 157.667 352.492 181.703C375.817 205.032 396.787 229.775 414.693 254.99C414.458 255.226 414.222 255.697 413.986 255.933C411.866 259.232 409.745 262.531 407.625 265.83C407.389 266.066 407.389 266.301 407.154 266.537C404.798 269.836 402.677 273.135 400.321 276.67C399.85 277.377 399.379 277.848 398.907 278.555C396.551 281.854 394.195 285.153 391.839 288.217C391.368 288.924 390.896 289.395 390.425 290.102C387.833 293.401 385.242 296.7 382.65 299.999C382.414 300.235 382.179 300.706 381.943 300.942C379.352 304.241 376.76 307.304 373.932 310.604C373.697 311.075 373.226 311.31 372.99 311.782C370.163 315.081 367.571 318.144 364.508 321.443C364.037 322.15 363.33 322.622 362.859 323.329C360.031 326.392 357.204 329.691 354.141 332.755C353.67 333.226 353.199 333.697 352.727 334.169C349.664 337.468 346.601 340.531 343.303 343.83C340.24 346.894 336.941 350.193 333.643 353.256C333.172 353.728 332.7 354.199 331.993 354.67C328.931 357.498 325.868 360.326 322.569 363.154C321.862 363.625 321.391 364.332 320.684 364.803C317.621 367.631 314.323 370.459 311.26 373.051C310.788 373.522 310.317 373.758 309.846 374.229C306.783 376.821 303.484 379.413 300.422 382.006C300.186 382.241 299.715 382.477 299.479 382.712C296.181 385.305 292.882 387.897 289.583 390.489C288.877 390.96 288.405 391.432 287.698 391.903C284.4 394.259 281.337 396.616 278.038 398.972C277.332 399.444 276.86 399.915 276.154 400.386C272.855 402.743 269.321 405.099 266.022 407.456C265.787 407.691 265.551 407.691 265.315 407.927C262.017 410.048 258.718 412.404 255.184 414.29C254.948 414.525 254.477 414.761 254.242 414.761C228.796 396.852 204.292 375.879 180.966 352.549C156.934 328.513 135.729 303.298 117.351 277.141C136.436 246.742 160.704 216.579 188.27 189.008C216.544 161.201 246.702 137.165 277.096 118.077ZM401.97 73.0681C420.819 73.0681 436.134 78.0167 446.03 87.914C466.763 108.651 465.585 151.775 444.38 202.911C428.359 182.174 410.688 162.144 391.368 142.821C372.048 123.497 352.021 105.823 331.287 89.7992C357.44 78.7237 381.708 73.0681 401.97 73.0681ZM71.4069 71.4185C82.245 60.5786 98.9734 55.1587 119.472 55.1587C149.866 55.1587 188.742 66.9412 230.209 88.8566C203.585 107.473 177.668 129.153 153.635 153.189C129.367 177.461 107.455 203.383 88.8421 230.011C52.0867 160.966 44.3115 98.5183 71.4069 71.4185ZM88.1353 446.102C67.4015 425.365 68.5795 382.241 89.7846 331.105C105.806 351.842 123.477 371.873 142.797 391.196C162.117 410.519 182.144 428.193 202.878 444.217C151.75 465.661 108.869 466.84 88.1353 446.102ZM462.758 462.834C435.898 489.698 374.639 482.393 306.312 446.574C307.019 446.102 307.49 445.631 308.197 445.16C310.317 443.746 312.438 442.096 314.558 440.682C315.501 439.976 316.443 439.269 317.386 438.562C319.977 436.676 322.333 434.791 324.925 432.906C325.396 432.67 325.632 432.199 326.103 431.963C328.931 429.843 331.758 427.486 334.585 425.13C335.528 424.423 336.235 423.716 337.177 423.009C339.298 421.359 341.418 419.474 343.539 417.824C344.481 417.117 345.423 416.41 346.13 415.704C348.722 413.347 351.549 411.226 354.141 408.87C354.377 408.634 354.612 408.634 354.612 408.398C357.44 405.806 360.267 403.45 363.094 400.858C363.801 400.151 364.744 399.444 365.45 398.737C367.571 396.852 369.691 394.966 371.576 392.845C372.283 392.139 373.226 391.432 373.932 390.489C376.76 387.897 379.352 385.305 382.179 382.477C384.771 379.885 387.598 377.057 390.19 374.465C390.896 373.758 391.839 372.815 392.546 372.108C394.431 369.987 396.316 368.102 398.2 365.981C398.907 365.274 399.614 364.332 400.557 363.625C403.148 360.797 405.504 357.969 408.096 355.141C408.332 354.906 408.332 354.906 408.567 354.67C410.923 352.078 413.28 349.25 415.4 346.658C416.107 345.715 416.814 345.008 417.521 344.066C419.405 341.945 421.055 339.824 422.94 337.468C423.647 336.761 424.118 335.818 424.825 335.111C427.181 332.283 429.537 329.22 431.657 326.392C431.893 326.156 431.893 325.921 432.129 325.685C434.249 323.093 436.37 320.265 438.254 317.437C438.961 316.495 439.432 315.788 440.139 314.845C441.789 312.489 443.438 310.368 445.087 308.011C445.558 307.54 445.794 307.069 446.265 306.598C482.314 374.7 489.618 435.969 462.758 462.834Z" fill="white"/>
</svg>
