<svg width="60" height="60" viewBox="0 0 60 60" fill="none" xmlns="http://www.w3.org/2000/svg">
<g clip-path="url(#clip0_328_559)">
<path d="M60 30C60 13.4315 46.5685 0 30 0C13.4315 0 0 13.4315 0 30C0 46.5685 13.4315 60 30 60C46.5685 60 60 46.5685 60 30Z" fill="#419FD9"/>
<path d="M83 30C83 0.728907 59.2711 -23 30 -23C0.728907 -23 -23 0.728907 -23 30C-23 59.2711 0.728907 83 30 83C59.2711 83 83 59.2711 83 30Z" fill="url(#paint0_linear_328_559)"/>
<path d="M13.4842 29.3386C22.2084 25.4578 28.0257 22.8993 30.9366 21.6631C39.2474 18.1337 40.9744 17.5206 42.1 17.5002C42.3475 17.4959 42.901 17.5586 43.2596 17.8556C43.5624 18.1064 43.6456 18.4453 43.6855 18.6831C43.7254 18.9209 43.775 19.4627 43.7355 19.8859C43.2851 24.7174 41.3365 36.4423 40.345 41.8537C39.9255 44.1434 39.0995 44.9112 38.2999 44.9863C36.562 45.1496 35.2422 43.8137 33.5591 42.6871C30.9251 40.9243 29.4373 39.8268 26.8805 38.1067C23.9259 36.1187 25.8412 35.0261 27.5251 33.2403C27.9657 32.7731 35.6229 25.6618 35.7711 25.0168C35.7896 24.9361 35.8069 24.6353 35.6319 24.4766C35.4569 24.3178 35.1986 24.3721 35.0122 24.4152C34.7481 24.4764 30.5404 27.3161 22.3891 32.9341C21.1947 33.7714 20.113 34.1793 19.1437 34.1579C18.0752 34.1344 16.0199 33.5412 14.4919 33.0341C12.6177 32.4119 11.1282 32.0832 11.2579 31.0268C11.3254 30.4766 12.0675 29.9138 13.4842 29.3386Z" fill="white"/>
</g>
<defs>
<linearGradient id="paint0_linear_328_559" x1="30" y1="-23" x2="30" y2="82.2138" gradientUnits="userSpaceOnUse">
<stop stop-color="#2AABEE"/>
<stop offset="1" stop-color="#229ED9"/>
</linearGradient>
<clipPath id="clip0_328_559">
<rect width="60" height="60" fill="white"/>
</clipPath>
</defs>
</svg>
